<?xml version="1.0" encoding="UTF-8"?>
<svg version="1.1" xmlns="http://www.w3.org/2000/svg" width="512" height="512">
<path d="M0 0 C0.91753406 -0.00297112 1.83506812 -0.00594224 2.78040624 -0.0090034 C5.86282965 -0.01769205 8.94521423 -0.01919888 12.02764893 -0.02069092 C14.2355762 -0.02531949 16.44350268 -0.0303442 18.65142822 -0.03573608 C24.66087533 -0.04887042 30.67031125 -0.05530868 36.67977047 -0.05974674 C40.44224891 -0.06267972 44.20472432 -0.06678526 47.96720123 -0.07125092 C58.40889195 -0.0833683 68.85058086 -0.09374395 79.29227829 -0.09712601 C79.96071568 -0.09734557 80.62915307 -0.09756514 81.31784613 -0.09779136 C81.98781085 -0.09800964 82.65777557 -0.09822791 83.34804225 -0.09845281 C84.70543718 -0.09889626 86.06283212 -0.09934282 87.42022705 -0.09979248 C88.09352976 -0.10001391 88.76683247 -0.10023534 89.4605383 -0.10046348 C100.32079923 -0.10439419 111.18099235 -0.12179117 122.04122719 -0.145152 C133.2240713 -0.16900947 144.40689092 -0.18107799 155.58976293 -0.18249393 C161.85481117 -0.18353548 168.11976411 -0.18930182 174.38478851 -0.20731354 C180.29783532 -0.22397997 186.21071716 -0.22586113 192.1237793 -0.21717453 C194.27453305 -0.2164136 196.42529634 -0.22061924 198.57602692 -0.23063278 C233.72296069 -0.38444183 267.04998009 6.1351678 298.02471924 23.14044189 C298.97556396 23.66227051 298.97556396 23.66227051 299.94561768 24.19464111 C314.51181757 32.30967088 326.99006606 42.67313665 339.02471924 54.14044189 C339.80331299 54.86618408 340.58190674 55.59192627 341.38409424 56.33966064 C369.56638286 83.37267153 385.86031382 121.09132125 392.02471924 159.14044189 C392.19979004 160.20593262 392.37486084 161.27142334 392.55523682 162.36920166 C393.07276981 166.52642067 393.22159791 170.58138851 393.26300049 174.76544189 C393.27279434 175.58139832 393.2825882 176.39735474 393.29267883 177.23803711 C393.46055702 194.85573995 393.5016034 211.97233057 389.02471924 229.14044189 C388.79977783 230.00991455 388.57483643 230.87938721 388.34307861 231.77520752 C375.45833817 280.15510068 345.17654719 321.44889115 302.02471924 347.14044189 C296.80930417 350.05407446 291.4433021 352.63057766 286.02471924 355.14044189 C284.89678955 355.67411377 283.76885986 356.20778564 282.60675049 356.75762939 C259.58470064 367.17557927 233.98806737 372.3056077 208.76504517 372.28088379 C207.30876943 372.28534047 207.30876943 372.28534047 205.82307398 372.28988719 C202.60300793 372.29848839 199.38297942 372.30007505 196.16290283 372.30157471 C193.8409365 372.30620868 191.51897093 372.31123412 189.19700623 372.31661987 C182.91419612 372.32968329 176.63139667 372.33617603 170.34857512 372.34063053 C166.42050885 372.34356888 162.49244546 372.34767493 158.56438065 372.3521347 C147.67115348 372.36422795 136.7779288 372.37461718 125.88469505 372.3780098 C125.18952157 372.37822936 124.4943481 372.37844893 123.77810875 372.37867515 C123.08137431 372.37889343 122.38463988 372.3791117 121.66679227 372.3793366 C120.25517678 372.37978005 118.84356129 372.38022661 117.4319458 372.38067627 C116.73175141 372.3808977 116.03155702 372.38111913 115.31014462 372.38134727 C103.95197421 372.38529961 92.59386778 372.40277414 81.23572211 372.42603579 C69.55212855 372.44976967 57.86857029 372.46195457 46.18495238 372.46337771 C39.63376577 372.46442529 33.08266975 372.4703242 26.53150558 372.48819733 C20.37382328 372.50467286 14.21629977 372.50683593 8.05860329 372.49805832 C5.80156466 372.49728789 3.54451749 372.50163145 1.28750038 372.51151657 C-1.79837975 372.52423785 -4.88369745 372.51835817 -7.96957397 372.50793457 C-8.85800983 372.51599097 -9.74644569 372.52404738 -10.66180384 372.53234792 C-20.14306241 372.45767363 -28.074574 369.7548748 -34.97528076 363.14044189 C-40.49668918 356.87630595 -42.33712117 348.90275038 -41.81903076 340.65216064 C-40.66251169 334.21346312 -37.92458093 328.59456436 -32.85809326 324.37872314 C-26.36746884 319.86588159 -20.60762079 318.08303244 -12.72528076 317.39044189 C-5.77613877 316.57801611 -0.21971764 314.9347965 5.02471924 310.14044189 C10.20306862 303.41283225 13.12533837 296.73994602 12.02471924 288.14044189 C10.93159928 284.69012012 9.55251323 281.41906549 8.02471924 278.14044189 C7.6856958 277.40309814 7.34667236 276.66575439 6.99737549 275.90606689 C5.69457843 273.54115015 4.49777243 273.2098703 2.02471924 272.14044189 C0.2746799 271.12468479 -1.46068195 270.08673436 -3.19403076 269.04278564 C-6.77632961 267.22806846 -10.16232593 267.01391593 -14.13592529 266.99859619 C-15.16444611 266.99156174 -16.19296692 266.98452728 -17.25265503 266.97727966 C-18.35994965 266.97311539 -19.46724426 266.96895111 -20.60809326 266.96466064 C-22.96487294 266.94145393 -25.3216438 266.91733626 -27.67840576 266.89239502 C-31.38451984 266.85736234 -35.09031072 266.82797811 -38.79656982 266.81451416 C-42.37997448 266.79895703 -45.96243958 266.758689 -49.54559326 266.71466064 C-50.64074249 266.71656906 -51.73589172 266.71847748 -52.86422729 266.72044373 C-61.14455661 266.59007712 -67.60024657 264.72568937 -74.72528076 260.51544189 C-81.5519967 253.30946396 -84.31162848 245.97611945 -84.18231201 236.20684814 C-83.63934883 228.16484637 -79.94269709 222.46975826 -73.97528076 217.14044189 C-68.84352653 213.8730681 -63.92739414 212.02558877 -57.82049561 211.98272705 C-56.76865082 211.9724649 -55.71680603 211.96220276 -54.63308716 211.95162964 C-52.92688705 211.94067764 -52.92688705 211.94067764 -51.18621826 211.92950439 C-48.77605535 211.90142463 -46.36589919 211.87276009 -43.95574951 211.84356689 C-40.1574124 211.80239251 -36.35919988 211.76550395 -32.56072998 211.73907471 C-28.89396074 211.71135047 -25.22776444 211.66546564 -21.56121826 211.61700439 C-20.43589691 211.61375153 -19.31057556 211.61049866 -18.15115356 211.60714722 C-10.10503751 211.48265994 -3.53051342 210.4650171 3.27471924 206.01544189 C9.1266891 199.8974734 12.43336357 192.95711205 12.30596924 184.42169189 C11.43588392 177.36433324 8.11875287 171.00292854 3.02471924 166.14044189 C-3.37551291 162.23755523 -8.85546822 160.99369328 -16.3270874 160.99859619 C-17.17953033 160.99512177 -18.03197327 160.99164734 -18.9102478 160.98806763 C-20.76324371 160.98071261 -22.61624842 160.97536587 -24.46925545 160.97177696 C-27.40854625 160.96460425 -30.34767082 160.94892944 -33.28691101 160.93043518 C-41.64484308 160.87801897 -50.00268609 160.83004003 -58.36077881 160.81451416 C-63.47375444 160.8043939 -68.58631438 160.77496274 -73.69912529 160.73319435 C-75.64179772 160.7209324 -77.58452901 160.71575426 -79.52723885 160.71799278 C-103.20531053 160.73855335 -103.20531053 160.73855335 -112.43621826 151.94512939 C-118.28691778 145.08466448 -119.75708587 138.39897628 -119.38934326 129.47637939 C-118.49314067 122.25603017 -115.5962612 116.63355165 -110.15909672 111.75415993 C-103.04385246 106.49639178 -94.67490309 105.55809753 -86.09466553 105.6897583 C-85.0687027 105.68905838 -84.04273987 105.68835846 -82.98568726 105.68763733 C-80.77812829 105.68834969 -78.5705572 105.69796026 -76.36306953 105.71571732 C-72.85950794 105.74244052 -69.35684183 105.74226092 -65.85319519 105.73501587 C-55.89919672 105.71943015 -45.94551748 105.75367327 -35.99163818 105.80059814 C-29.88390561 105.82754674 -23.77671133 105.82525447 -17.66895866 105.80613327 C-15.3538778 105.80505655 -13.03876045 105.8153983 -10.72378731 105.83775711 C6.68177248 106.40578493 6.68177248 106.40578493 22.02471924 99.14044189 C27.39227536 93.44254787 29.85873641 86.97483146 30.02471924 79.14044189 C29.10263819 72.1367701 26.10023466 66.06281677 21.02471924 61.14044189 C14.80854157 56.8020679 9.68296975 55.12594531 2.13531494 54.90118408 C-8.37203717 54.55694409 -17.36820653 53.10133353 -24.97528076 45.14044189 C-30.46998618 36.6744148 -32.43166878 28.95683633 -30.54949951 18.85528564 C-28.27624912 11.84028598 -23.31752615 6.07745584 -16.78778076 2.70294189 C-11.22096993 0.17463473 -6.06131311 -0.0061133 0 0 Z M104.02471924 78.14044189 C103.07854736 79.01055908 102.13237549 79.88067627 101.15753174 80.77716064 C92.78463576 88.65310416 86.27025664 97.51955892 80.02471924 107.14044189 C79.63800049 107.73051025 79.25128174 108.32057861 78.85284424 108.92852783 C59.53050151 138.90966288 52.54510325 180.10665966 59.98956299 214.92950439 C60.32521154 216.33542851 60.67070816 217.73902878 61.02471924 219.14044189 C61.223396 219.93031494 61.42207275 220.72018799 61.62677002 221.53399658 C67.7163775 244.93451073 77.99650345 265.93657482 94.02471924 284.14044189 C94.81620361 285.06469971 95.60768799 285.98895752 96.42315674 286.94122314 C102.10767449 293.42372525 108.18026197 298.91042582 115.02471924 304.14044189 C115.87550049 304.80688721 116.72628174 305.47333252 117.60284424 306.15997314 C148.7122563 329.77145805 188.15367898 339.96494103 226.77471924 335.01544189 C266.8418748 329.34835792 303.00774814 308.50558048 327.71807861 276.31646729 C341.48629662 257.57666556 350.06195286 236.77808748 355.02471924 214.14044189 C355.27093018 213.04602783 355.51714111 211.95161377 355.77081299 210.82403564 C362.5409103 173.51846496 353.10306918 133.21656615 331.69659424 102.18048096 C307.62347441 68.33937403 273.12611272 45.37224523 232.02471924 38.14044189 C184.83005749 30.94559541 138.6558663 45.36264369 104.02471924 78.14044189 Z " fill="#000000" transform="translate(118.97528076171875,69.85955810546875)"/>
<path d="M0 0 C1.19447754 0.17644043 1.19447754 0.17644043 2.41308594 0.35644531 C7.90127242 1.25921389 13.02623921 2.7902785 18.25 4.6875 C17.93546875 5.285625 17.6209375 5.88375 17.296875 6.5 C15.62657677 9.99017541 14.78823761 13.17627762 15.9375 16.9375 C17.56403877 19.10621836 18.66020705 19.87356507 21.25 20.6875 C25.38821691 20.2729988 27.39951477 19.03463096 30.375 16.1875 C32.80326417 13.88206631 34.02608595 12.76213802 37.25 11.6875 C39.75001654 12.9185908 42.06434593 14.18492155 44.4375 15.625 C45.41879883 16.20411133 45.41879883 16.20411133 46.41992188 16.79492188 C48.03535316 17.75003088 49.64340525 18.71760066 51.25 19.6875 C51.25 24.01180958 51.24113256 24.19641916 48.43442917 27.00922871 C47.80640136 27.6483042 47.17837356 28.28737969 46.53131461 28.94582111 C45.82978145 29.6391135 45.12824829 30.3324059 44.40545654 31.04670715 C43.66915583 31.7899534 42.93285511 32.53319964 42.17424226 33.29896849 C39.69172992 35.79985274 37.19506928 38.28611811 34.69824219 40.77270508 C32.92067718 42.55732328 31.1439583 44.34278462 29.36802673 46.12902832 C25.03509437 50.48218311 20.69277988 54.82578033 16.3456637 59.16476581 C12.81401475 62.69012235 9.28609237 66.21916719 5.76081085 69.75089073 C5.25962536 70.25297788 4.75843987 70.75506503 4.24206693 71.27236694 C3.22402716 72.29225785 2.20599311 73.31215446 1.18796471 74.33205672 C-8.36455897 83.90116956 -17.92971026 93.45758106 -27.49894378 103.00997963 C-36.26086339 111.7571972 -45.00802691 120.51899934 -53.74816766 129.28797368 C-62.7154696 138.28463876 -71.69190727 147.27208884 -80.67868114 156.24930495 C-81.69431739 157.26391861 -82.70993966 158.27854628 -83.72554779 159.2931881 C-84.2252889 159.79245281 -84.72503001 160.29171753 -85.23991479 160.80611149 C-88.76695076 164.33097947 -92.28795127 167.86180817 -95.80661774 171.39502907 C-100.53909197 176.14680433 -105.28443403 180.88534095 -110.038908 185.61511993 C-111.78638852 187.3575676 -113.52957562 189.10433277 -115.26822853 190.85558891 C-117.63334056 193.23649052 -120.01315079 195.60162065 -122.39752197 197.96321106 C-123.43643739 199.01988007 -123.43643739 199.01988007 -124.49634099 200.09789592 C-125.45402918 201.03695105 -125.45402918 201.03695105 -126.43106461 201.994977 C-126.97938076 202.54302347 -127.52769692 203.09106993 -128.09262872 203.65572387 C-129.75 204.6875 -129.75 204.6875 -131.83511901 204.53083152 C-135.044898 203.1172148 -135.96620039 200.39620705 -137.5625 197.375 C-138.18769531 196.22386719 -138.81289062 195.07273437 -139.45703125 193.88671875 C-140.75 190.6875 -140.75 190.6875 -140.671875 188.51171875 C-139.50236557 186.19747762 -138.01366316 184.64973082 -136.1875 182.8125 C-133.74844059 180.11801548 -132.82521215 179.07860316 -132.125 175.4375 C-132.85050476 172.24527906 -133.1868762 170.77003809 -135.75 168.6875 C-141.29885891 168.06865315 -141.29885891 168.06865315 -146.25 170.1875 C-146.745 170.6825 -147.24 171.1775 -147.75 171.6875 C-159.21787062 142.45567292 -155.83099518 107.4978046 -143.75927734 78.96630859 C-129.4724805 46.70869811 -103.47726193 20.82273803 -70.53320312 7.81201172 C-47.77506194 -0.69043767 -24.08649726 -3.58696227 0 0 Z M-6.75 30.6875 C-7.56726563 31.42097656 -8.38453125 32.15445313 -9.2265625 32.91015625 C-12.88415353 36.29487938 -15.39773759 38.68103598 -17.0625 43.4375 C-16.67077396 47.51145078 -15.82869491 49.00350957 -12.75 51.6875 C-9.89710302 52.94079784 -9.89710302 52.94079784 -6.75 52.6875 C-2.2753838 50.06806214 1.38241407 46.86521201 5 43.1875 C5.48082031 42.71441406 5.96164062 42.24132812 6.45703125 41.75390625 C8.93542599 39.26170429 11.04859341 37.02317005 12.25 33.6875 C12.1024997 30.14749272 11.62096501 28.2095989 9.5625 25.3125 C7.32044866 23.53012183 7.32044866 23.53012183 4.5 23 C-0.51322373 24.06048964 -3.17090687 27.16655099 -6.75 30.6875 Z M-43.265625 66.90234375 C-44.51569644 68.13791014 -45.76037887 69.3789493 -47 70.625 C-47.63679688 71.24568359 -48.27359375 71.86636719 -48.9296875 72.50585938 C-49.53554688 73.11107422 -50.14140625 73.71628906 -50.765625 74.33984375 C-51.58981934 75.15956665 -51.58981934 75.15956665 -52.43066406 75.99584961 C-53.9323805 77.92134798 -54.41615104 79.27974999 -54.75 81.6875 C-53.9639398 84.61736075 -53.10922442 86.31544614 -51 88.5 C-47.81156933 90.18278285 -46.33079506 90.37611443 -42.75 89.6875 C-39.78353642 87.65651871 -37.29657435 85.21510546 -34.75 82.6875 C-34.00621094 81.96949219 -33.26242187 81.25148438 -32.49609375 80.51171875 C-27.32526971 75.78669083 -27.32526971 75.78669083 -25.4375 69.3125 C-25.44046991 65.69804824 -25.44046991 65.69804824 -27.4375 63.3125 C-34.04658888 58.66827538 -38.01893842 61.93769919 -43.265625 66.90234375 Z M-81.75 105.6875 C-82.56726563 106.42097656 -83.38453125 107.15445313 -84.2265625 107.91015625 C-87.88415353 111.29487938 -90.39773759 113.68103598 -92.0625 118.4375 C-91.67077396 122.51145078 -90.82869491 124.00350957 -87.75 126.6875 C-84.89710302 127.94079784 -84.89710302 127.94079784 -81.75 127.6875 C-77.2753838 125.06806214 -73.61758593 121.86521201 -70 118.1875 C-69.51917969 117.71441406 -69.03835938 117.24132812 -68.54296875 116.75390625 C-66.06457401 114.26170429 -63.95140659 112.02317005 -62.75 108.6875 C-62.8975003 105.14749272 -63.37903499 103.2095989 -65.4375 100.3125 C-67.67955134 98.53012183 -67.67955134 98.53012183 -70.5 98 C-75.51322373 99.06048964 -78.17090687 102.16655099 -81.75 105.6875 Z M-118.265625 141.8671875 C-119.51573462 143.09356086 -120.76041643 144.32548818 -122 145.5625 C-122.63679688 146.17480469 -123.27359375 146.78710938 -123.9296875 147.41796875 C-126.56003642 150.03152821 -128.48194386 151.94301596 -129.75 155.46484375 C-129.75 158.61248242 -128.62540237 160.20928972 -126.75 162.6875 C-123.13751859 165.09582094 -122.01125032 165.41110855 -117.75 164.6875 C-114.7790996 162.66384321 -112.29606422 160.21459913 -109.75 157.6875 C-109.00621094 156.96949219 -108.26242188 156.25148438 -107.49609375 155.51171875 C-102.32526971 150.78669083 -102.32526971 150.78669083 -100.4375 144.3125 C-100.44046991 140.69804824 -100.44046991 140.69804824 -102.4375 138.3125 C-109.03806349 133.6742662 -112.99859272 136.93850241 -118.265625 141.8671875 Z " fill="#000000" transform="translate(347.75,124.3125)"/>
<path d="M0 0 C4.20059624 1.40019875 5.19051525 4.36825877 7.1875 8.0625 C7.55552734 8.72572266 7.92355469 9.38894531 8.30273438 10.07226562 C9.21012062 11.71027457 10.10615573 13.35456221 11 15 C10.40251953 15.67095703 10.40251953 15.67095703 9.79296875 16.35546875 C3.85527821 22.61710326 3.85527821 22.61710326 2.125 30.6875 C2.67835395 34.26425255 2.67835395 34.26425255 6 36 C11.15159764 36.47699978 13.72598675 35.78324918 18 33 C27.89323198 69.64337864 24.67735949 106.65217153 6.12255859 140.08447266 C0.54902116 149.59512396 -6.39175118 158.05270266 -14 166 C-15.00740234 167.10214844 -15.00740234 167.10214844 -16.03515625 168.2265625 C-35.59905235 188.92406754 -63.10041013 201.04045122 -91 205 C-92.90265625 205.27457031 -92.90265625 205.27457031 -94.84375 205.5546875 C-106.73129819 206.98978669 -118.93611839 206.44682379 -130.75 204.6875 C-131.54631836 204.56987305 -132.34263672 204.45224609 -133.16308594 204.33105469 C-138.65127242 203.42828611 -143.77623921 201.8972215 -149 200 C-148.505 199.29875 -148.01 198.5975 -147.5 197.875 C-145.76104224 194.54199763 -145.52646683 192.70934317 -146 189 C-147.42175199 186.23132506 -148.40973746 185.26233891 -151.25 184 C-156.47605378 184 -160.36994149 187.21276068 -163.9375 190.75 C-164.618125 191.4925 -165.29875 192.235 -166 193 C-170.46182436 191.68925635 -173.99618757 189.92933989 -177.875 187.375 C-178.84179688 186.74335938 -179.80859375 186.11171875 -180.8046875 185.4609375 C-181.52914062 184.97882813 -182.25359375 184.49671875 -183 184 C-178.73228672 178.9031587 -174.26816769 174.12747662 -169.55886841 169.43861389 C-168.46699543 168.34545928 -168.46699543 168.34545928 -167.35306442 167.23022074 C-164.92800949 164.80352658 -162.49941237 162.38040966 -160.07080078 159.95727539 C-158.32588072 158.21263756 -156.58118114 156.46777918 -154.83668518 154.72271729 C-151.08792157 150.9737264 -147.33763703 147.22626723 -143.58594131 143.48021126 C-138.16171182 138.06413042 -132.74026625 132.64526985 -127.31948255 127.22574048 C-118.52321322 118.43165639 -109.72471595 109.63980488 -100.92480469 100.84936523 C-92.37968357 92.3134319 -83.8356199 83.77644238 -75.29296875 75.23803711 C-74.76584687 74.71117796 -74.238725 74.1843188 -73.69562973 73.64149422 C-71.0510557 70.99822529 -68.40650236 68.35493564 -65.76195931 65.71163571 C-43.8445137 43.80454626 -21.92340977 21.90112092 0 0 Z M-23 49 C-24.08667969 50.07314453 -24.08667969 50.07314453 -25.1953125 51.16796875 C-28.05308425 54.15879465 -29.80472428 56.09463077 -30.6875 60.1875 C-29.81192266 63.76940731 -28.71533469 65.49903384 -26 68 C-23.14710302 69.25329784 -23.14710302 69.25329784 -20 69 C-15.5253838 66.38056214 -11.86758593 63.17771201 -8.25 59.5 C-7.76917969 59.02691406 -7.28835938 58.55382812 -6.79296875 58.06640625 C-4.31457401 55.57420429 -2.20140659 53.33567005 -1 50 C-1.14588553 46.4987473 -1.64157637 44.52384992 -3.625 41.625 C-5.9799524 39.81680402 -5.9799524 39.81680402 -9.125 39.1875 C-15.27730056 40.4774985 -18.71070344 44.59422094 -23 49 Z M-61.3125 87.0625 C-65.27984138 91.1011876 -65.27984138 91.1011876 -68 96 C-67.92733979 99.5603504 -67.38506043 101.43721938 -65.375 104.375 C-63.0200476 106.18319598 -63.0200476 106.18319598 -59.875 106.8125 C-53.72012883 105.5219625 -50.29389252 101.40364057 -46 97 C-45.27554688 96.29617188 -44.55109375 95.59234375 -43.8046875 94.8671875 C-40.70705784 91.66922976 -39.16023932 89.72723999 -38.1875 85.3125 C-39.33524593 80.63322815 -40.95678912 79.56588383 -45 77 C-51.994179 77 -56.47712757 82.36960632 -61.3125 87.0625 Z M-98 124 C-99.08667969 125.07314453 -99.08667969 125.07314453 -100.1953125 126.16796875 C-103.05308425 129.15879465 -104.80472428 131.09463077 -105.6875 135.1875 C-104.82046292 138.73446988 -103.65049116 140.49277863 -101 143 C-98.70441532 144.25941717 -98.70441532 144.25941717 -96 144 C-90.76876962 141.90750785 -87.15823811 138.42533601 -83.1875 134.5 C-82.70716309 134.02530273 -82.22682617 133.55060547 -81.73193359 133.06152344 C-79.28862196 130.56707474 -77.17947438 128.31770278 -76 125 C-76.12914413 121.31939225 -76.22140609 118.9283235 -78.625 116.0625 C-87.50452651 112.09008024 -92.09567662 117.93533557 -98 124 Z M-138.29296875 164.0546875 C-140.52644797 166.59993384 -142.00939311 168.7451488 -143 172 C-142.39662782 175.419109 -141.58695528 177.32608838 -139.3125 179.9375 C-135.70718385 181.59399661 -133.79180582 181.13754175 -130 180 C-127.0078611 177.97326062 -124.53356671 175.56709217 -122 173 C-121.24589844 172.2678125 -120.49179687 171.535625 -119.71484375 170.78125 C-116.2967471 167.26067074 -114.21184417 165.07687453 -113.25 160.1875 C-114.12807927 156.4556631 -114.84385623 155.15946679 -118 153 C-126.25186688 149.62423627 -133.01171372 158.57551562 -138.29296875 164.0546875 Z " fill="#000000" transform="translate(436,183)"/>
<path d="M0 0 C3.85027991 1.78200687 6.2799142 4.07675405 9.25 7.125 C10.14203125 8.03507813 11.0340625 8.94515625 11.953125 9.8828125 C12.96632813 10.93082031 12.96632813 10.93082031 14 12 C12.66135536 14.9730715 11.18863127 17.06337088 8.8914814 19.36858082 C8.24902131 20.0181065 7.60656122 20.66763218 6.94463265 21.33684045 C6.23725232 22.04180569 5.529872 22.74677093 4.80105591 23.47309875 C4.05079569 24.22859565 3.30053547 24.98409255 2.52754009 25.7624833 C0.00506966 28.29999009 -2.52453376 30.8302631 -5.05419922 33.3605957 C-6.86118426 35.17519952 -8.66776438 36.99020665 -10.47396851 38.80558777 C-15.38630374 43.73989672 -20.3052108 48.66759878 -25.22601461 53.59346032 C-28.29704655 56.66774881 -31.36644263 59.74366689 -34.43548965 62.81993675 C-42.9299836 71.33399108 -51.42605037 79.84646676 -59.92887688 88.35220051 C-60.74482285 89.16842783 -60.74482285 89.16842783 -61.57725257 90.0011446 C-62.68002327 91.10428155 -63.78279524 92.20741722 -64.88556848 93.31055162 C-65.43299397 93.85815992 -65.98041946 94.40576822 -66.54443359 94.9699707 C-67.3665729 95.79238084 -67.3665729 95.79238084 -68.20532109 96.63140532 C-77.09707833 105.52670843 -85.97702279 114.43370358 -94.85185491 123.3458899 C-103.95949171 132.49155434 -113.07640329 141.62788397 -122.20292294 150.75470608 C-127.32873913 155.8811079 -132.45049577 161.01142503 -137.56216049 166.1519413 C-142.36548391 170.98225098 -147.18139305 175.79964005 -152.00629044 180.6084156 C-153.77958568 182.37988516 -155.54857524 184.15567637 -157.3130188 185.93596268 C-159.71306054 188.35624317 -162.12781003 190.76079111 -164.54708862 193.16181946 C-165.2500075 193.87793831 -165.95292639 194.59405716 -166.67714584 195.33187658 C-167.32482142 195.96836352 -167.972497 196.60485046 -168.63979912 197.26062489 C-169.19614442 197.81778464 -169.75248972 198.3749444 -170.32569396 198.94898778 C-172 200 -172 200 -174.04668248 199.80524415 C-177.07766819 198.55573736 -178.99524762 196.47792456 -181.3125 194.1875 C-182.21613281 193.31480469 -183.11976563 192.44210937 -184.05078125 191.54296875 C-186 189 -186 189 -185.81009251 187.05240226 C-184.87103692 184.6732668 -183.79581218 183.4230012 -181.98773861 181.61859512 C-181.34131938 180.96620275 -180.69490015 180.31381037 -180.02889246 179.64164853 C-179.31197986 178.93347446 -178.59506727 178.22530039 -177.85643005 177.4956665 C-176.72196264 176.35735417 -176.72196264 176.35735417 -175.56457669 175.19604564 C-173.01815311 172.64466467 -170.46112485 170.10418189 -167.90405273 167.56347656 C-166.08062417 165.74089384 -164.25785521 163.91765101 -162.43569946 162.09379578 C-158.50636468 158.16288709 -154.57156953 154.23751342 -150.63302422 150.31583405 C-144.93854569 144.64572503 -139.25235816 138.96736116 -133.56816734 133.28694114 C-124.34597985 124.07132135 -115.1171112 114.86242252 -105.8840332 105.65771484 C-96.91437613 96.71559009 -87.9478718 87.77032339 -78.9855957 78.82080078 C-78.43326424 78.26925749 -77.88093279 77.71771421 -77.31186401 77.14945748 C-74.54102991 74.38253846 -71.77025774 71.61555743 -68.99951637 68.84854555 C-46.00927198 45.88940699 -23.00818266 22.94116215 0 0 Z " fill="#000000" transform="translate(413,156)"/>
<path d="M0 0 C6.47312481 5.31834477 10.0202606 10.30949622 10.9453125 18.703125 C11.2815012 28.17753371 9.80675784 35.0243866 3.44921875 42.1484375 C-2.85018721 47.91172381 -10.24137957 50.08483079 -18.69140625 49.71484375 C-28.13481331 48.40625734 -34.0455659 44.00292234 -39.7421875 36.6328125 C-44.09405989 29.65768602 -43.54137995 20.41893025 -41.8359375 12.6484375 C-39.22629631 5.72146365 -33.67655148 0.51619487 -27.15625 -2.828125 C-17.93135759 -6.28544019 -8.19023939 -5.61842509 0 0 Z " fill="#000000" transform="translate(42.42578125,74.6640625)"/>
</svg>
